<svg width="265" height="164" viewBox="0 0 265 164" fill="none" xmlns="http://www.w3.org/2000/svg">
<rect width="265" height="164" rx="39" fill="#289488"/>
<path d="M204.448 54.6572C199.451 54.6572 195.175 53.0236 191.62 49.7564C188.064 46.4411 186.286 42.4531 186.286 37.7926C186.286 33.18 188.064 29.2401 191.62 25.9729C195.175 22.6576 199.427 21 204.376 21C209.373 21 213.625 22.6576 217.133 25.9729C220.688 29.2401 222.466 33.18 222.466 37.7926C222.466 42.4531 220.688 46.4411 217.133 49.7564C213.625 53.0236 209.397 54.6572 204.448 54.6572Z" fill="white"/>
<path d="M166.816 70C166.816 75.4121 165.936 80.2153 164.177 84.4096C162.554 88.6039 160.186 92.1894 157.074 95.1661C154.097 98.0074 150.444 100.172 146.114 101.661C141.92 103.149 137.117 103.893 131.705 103.893C126.699 103.893 122.098 103.149 117.904 101.661C113.71 100.172 110.057 98.0074 106.945 95.1661C103.833 92.1894 101.397 88.6039 99.6384 84.4096C98.0148 80.2153 97.1353 75.4121 97 70H117.092C117.092 74.1943 117.633 77.7798 118.716 80.7565C119.798 83.5978 121.422 85.7626 123.587 87.2509C125.752 88.6039 128.593 89.2804 132.111 89.2804C135.493 89.2804 138.267 88.6039 140.432 87.2509C142.597 85.7626 144.153 83.5978 145.1 80.7565C146.182 77.7798 146.723 74.1943 146.723 70H166.816Z" fill="white"/>
<path d="M60.1619 54.6572C55.165 54.6572 50.8888 53.0236 47.3333 49.7564C43.7778 46.4411 42 42.4531 42 37.7926C42 33.18 43.7778 29.2401 47.3333 25.9729C50.8888 22.6576 55.141 21 60.0898 21C65.0868 21 69.3389 22.6576 72.8464 25.9729C76.4019 29.2401 78.1797 33.18 78.1797 37.7926C78.1797 42.4531 76.4019 46.4411 72.8464 49.7564C69.3389 53.0236 65.1108 54.6572 60.1619 54.6572Z" fill="white"/>
</svg>
