<?xml version="1.0" standalone="no"?>
<!DOCTYPE svg PUBLIC "-//W3C//DTD SVG 20010904//EN"
 "http://www.w3.org/TR/2001/REC-SVG-20010904/DTD/svg10.dtd">
<svg version="1.0" xmlns="http://www.w3.org/2000/svg"
 width="1060.000000pt" height="1060.000000pt" viewBox="0 0 1060.000000 1060.000000"
 preserveAspectRatio="xMidYMid meet">
<metadata>
Created by potrace 1.14, written by Peter Selinger 2001-2017
</metadata>
<g transform="translate(0.000000,1060.000000) scale(0.100000,-0.100000)"
fill="#000000" stroke="none">
<path d="M1410 8575 c-8 -2 -49 -8 -90 -15 -107 -17 -108 -17 -187 -39 -82
-24 -222 -78 -240 -93 -7 -6 -13 -7 -13 -4 0 4 -12 -1 -27 -11 -16 -11 -50
-30 -76 -44 -27 -13 -91 -56 -144 -95 -214 -160 -373 -354 -484 -592 -22 -48
-45 -96 -50 -107 -5 -11 -11 -29 -13 -40 -3 -11 -11 -39 -20 -63 -8 -23 -15
-44 -16 -47 0 -3 0 -6 -1 -7 -3 -10 -8 -39 -14 -73 -4 -22 -8 -42 -10 -45 -2
-3 -7 -33 -12 -65 -10 -73 -11 -3802 -1 -3865 10 -60 33 -165 49 -220 7 -25
13 -48 15 -52 1 -5 3 -10 4 -13 1 -3 4 -9 5 -15 1 -5 4 -12 5 -15 1 -3 3 -9 4
-14 0 -5 4 -13 9 -17 4 -4 7 -16 7 -26 0 -10 5 -18 12 -18 6 0 9 -3 5 -6 -7
-7 96 -209 119 -235 8 -8 14 -19 14 -23 0 -4 5 -12 10 -19 6 -7 33 -41 61 -77
79 -102 170 -193 269 -271 55 -43 167 -119 175 -119 4 0 27 -12 53 -27 59 -35
297 -131 327 -133 3 0 7 -1 10 -1 3 -1 8 -2 13 -3 4 -1 27 -6 52 -10 25 -5 54
-10 65 -13 11 -2 40 -7 65 -11 64 -10 7824 -9 7890 2 30 4 62 9 70 10 8 2 31
6 50 11 19 5 37 9 40 10 43 9 117 29 125 35 6 4 22 10 36 13 14 4 43 14 65 24
21 9 41 17 44 18 3 0 16 7 30 15 14 8 48 26 75 40 128 65 266 170 384 293 65
67 190 233 221 292 11 22 25 47 30 55 49 82 123 287 146 405 2 11 6 31 9 45 3
14 9 52 13 85 10 83 9 3812 -1 3855 -5 19 -10 51 -13 70 -2 19 -9 49 -14 66
-6 17 -13 42 -15 54 -8 39 -47 154 -58 168 -5 6 -7 12 -3 12 11 0 -112 230
-161 298 -69 98 -186 231 -254 287 -83 68 -122 97 -184 136 -39 24 -79 50 -90
57 -11 6 -31 17 -44 23 -14 5 -53 23 -87 39 -91 42 -259 93 -349 105 -16 3
-41 8 -55 12 -23 7 -7816 15 -7850 8z"/>
</g>
</svg>
